<?xml version="1.0" encoding="UTF-8"?>
<svg xmlns="http://www.w3.org/2000/svg" xmlns:xlink="http://www.w3.org/1999/xlink" width="200px" height="235px" viewBox="0 0 200 235" version="1.1">
<g id="surface1">
<path style=" stroke:none;fill-rule:nonzero;fill:rgb(0%,0%,0%);fill-opacity:1;" d="M 61.601562 116.558594 C 45.601562 107.160156 34.800781 88.359375 34.800781 65.800781 C 34.800781 34.78125 56.398438 9.398438 82.800781 9.398438 C 109.199219 9.398438 130.800781 34.78125 130.800781 65.800781 C 130.800781 96.351562 110.398438 121.261719 84.398438 122.199219 L 84 122.199219 C 44.398438 122.199219 12 160.269531 12 206.800781 C 12 209.621094 10.398438 211.5 8 211.5 C 5.601562 211.5 4 209.621094 4 206.800781 C 4 164.03125 28.398438 127.839844 61.601562 116.558594 Z M 82.800781 112.800781 C 104.800781 112.800781 122.800781 91.648438 122.800781 65.800781 C 122.800781 39.949219 104.800781 18.800781 82.800781 18.800781 C 60.800781 18.800781 42.800781 39.949219 42.800781 65.800781 C 42.800781 91.648438 60.800781 112.800781 82.800781 112.800781 Z M 192.398438 143.820312 L 193.199219 146.171875 L 183.601562 159.800781 C 182 162.148438 182 165.910156 183.601562 168.261719 L 193.199219 181.421875 L 192.398438 183.769531 C 190.398438 190.351562 187.601562 196.929688 183.601562 202.101562 L 182 203.980469 L 167.199219 201.160156 C 164.800781 200.691406 162 202.570312 161.199219 205.390625 L 156 222.308594 L 154 222.78125 C 146.398438 224.660156 138.800781 224.660156 131.199219 222.78125 L 128.800781 222.308594 L 124 205.859375 C 123.199219 203.039062 120.398438 201.160156 118 201.628906 L 102.800781 204.449219 L 101.199219 202.570312 C 99.199219 200.21875 97.601562 197.398438 96.398438 194.578125 C 94.800781 191.289062 93.199219 187.53125 92.398438 183.769531 L 91.601562 181.421875 L 101.601562 168.261719 C 103.199219 165.910156 103.199219 162.148438 101.601562 160.269531 L 92 146.640625 L 92.800781 144.289062 C 94.800781 137.238281 98 131.128906 102 125.488281 L 103.601562 123.609375 L 118 126.429688 C 120.398438 126.898438 123.199219 125.019531 124.398438 122.199219 L 129.601562 105.75 L 131.601562 105.28125 C 138.800781 103.398438 146.398438 103.398438 154 105.28125 L 156.398438 105.75 L 161.199219 121.730469 C 162 124.550781 164.800781 126.898438 167.601562 126.429688 L 182.398438 124.078125 L 184 125.960938 C 186 128.78125 187.601562 131.128906 188.800781 134.421875 C 190 136.769531 191.199219 140.53125 192.398438 143.820312 Z M 181.199219 138.179688 C 180.398438 136.300781 179.601562 134.890625 178.398438 133.011719 L 168 134.421875 C 161.601562 135.359375 155.199219 130.660156 153.199219 123.609375 L 150 112.800781 C 145.199219 111.859375 140.398438 111.859375 135.601562 112.800781 L 132 124.078125 C 130 131.128906 123.199219 135.828125 116.800781 134.421875 L 106.800781 132.539062 C 104.398438 135.828125 102.800781 140.058594 101.199219 143.820312 L 108 153.21875 C 112 158.859375 112 167.789062 108 173.429688 L 101.199219 182.828125 C 102 185.179688 102.800781 187.058594 104 189.410156 C 104.800781 191.289062 105.601562 192.699219 106.800781 194.109375 L 117.601562 192.230469 C 124 191.289062 130.398438 195.988281 132.398438 203.039062 L 135.601562 214.320312 C 140.398438 215.261719 145.601562 215.261719 150.398438 214.320312 L 154 202.570312 C 156 195.519531 162.800781 190.820312 168.800781 192.230469 L 178.800781 194.109375 C 180.800781 190.820312 182.800781 187.058594 184 182.828125 L 177.601562 173.898438 C 173.601562 168.261719 173.199219 159.328125 177.199219 153.691406 L 184 144.289062 C 183.199219 142.410156 182.398438 140.53125 181.199219 138.179688 Z M 142.800781 185.179688 C 132.800781 185.179688 124.800781 175.78125 124.800781 164.03125 C 124.800781 152.28125 132.800781 142.878906 142.800781 142.878906 C 152.800781 142.878906 160.800781 152.28125 160.800781 164.03125 C 160.800781 175.78125 152.398438 185.179688 142.800781 185.179688 Z M 142.800781 175.78125 C 148.398438 175.78125 152.800781 170.609375 152.800781 164.03125 C 152.800781 157.449219 148.398438 152.28125 142.800781 152.28125 C 137.199219 152.28125 132.800781 157.449219 132.800781 164.03125 C 132.800781 170.609375 137.199219 175.78125 142.800781 175.78125 Z M 142.800781 175.78125 "/>
</g>
</svg>
